<?xml version="1.0" standalone="no"?>
<!DOCTYPE svg PUBLIC "-//W3C//DTD SVG 20010904//EN"
 "http://www.w3.org/TR/2001/REC-SVG-20010904/DTD/svg10.dtd">
<svg version="1.0" xmlns="http://www.w3.org/2000/svg"
 width="700.000000pt" height="700.000000pt" viewBox="0 0 700.000000 700.000000"
 preserveAspectRatio="xMidYMid meet">
<metadata>
Created by potrace 1.11, written by Peter Selinger 2001-2013
</metadata>
<g transform="translate(0.000000,700.000000) scale(0.100000,-0.100000)"
fill="#000000" stroke="none">
<path d="M3250 6703 c-462 -46 -815 -144 -1190 -332 -624 -313 -1127 -819
-1435 -1446 -168 -341 -255 -622 -312 -1010 -25 -171 -25 -648 0 -825 53 -378
143 -670 307 -1005 226 -462 544 -847 955 -1155 771 -579 1771 -780 2705 -545
1157 291 2055 1194 2339 2350 70 284 96 542 88 855 -14 495 -111 888 -332
1335 -384 778 -1045 1351 -1880 1630 -315 104 -653 156 -1010 153 -110 -1
-216 -3 -235 -5z m2006 -1095 c-31 -320 -140 -742 -251 -973 -93 -195 -236
-367 -357 -430 l-55 -29 -7 -80 c-26 -312 -187 -586 -447 -758 -147 -98 -303
-153 -471 -165 l-88 -6 0 -338 0 -339 335 0 335 0 0 -255 0 -255 255 0 255 0
0 -330 0 -330 -1260 0 -1260 0 0 330 0 330 255 0 255 0 0 255 0 255 335 0 335
0 0 340 0 340 -49 0 c-132 0 -339 61 -464 137 -208 126 -369 325 -446 550 -24
72 -51 217 -51 277 0 40 -2 42 -58 71 -120 63 -263 234 -357 430 -111 231
-220 653 -251 973 l-7 72 1763 0 1763 0 -7 -72z"/>
<path d="M1926 5433 c62 -395 182 -730 335 -933 49 -65 126 -140 143 -140 3 0
6 261 6 580 l0 580 -249 0 -248 0 13 -87z"/>
<path d="M4590 4939 l0 -580 28 20 c100 70 223 262 303 470 60 156 133 445
155 619 l7 52 -247 0 -246 0 0 -581z"/>
<path d="M2981 5289 c-60 -12 -159 -59 -202 -97 -46 -40 -94 -131 -114 -213
-8 -35 -15 -69 -15 -75 0 -7 44 -16 113 -23 165 -16 153 -19 161 38 7 54 36
103 79 135 39 29 138 29 187 1 52 -30 83 -96 77 -166 -8 -99 -38 -139 -275
-376 -145 -145 -235 -243 -267 -291 -49 -75 -89 -174 -101 -250 l-7 -42 459 2
459 3 3 123 3 122 -256 0 c-190 0 -255 3 -255 12 0 6 85 95 189 197 205 202
258 272 293 386 91 293 -95 529 -414 524 -40 -1 -93 -5 -117 -10z"/>
<path d="M4140 5255 c-47 -98 -150 -192 -288 -263 l-82 -43 0 -115 c0 -101 2
-114 17 -114 29 0 195 86 258 134 l60 45 3 -485 2 -485 133 3 132 3 3 683 2
682 -109 0 -109 0 -22 -45z"/>
</g>
</svg>
